<?xml version="1.0" encoding="utf-8"?>
<!-- Generator: Adobe Illustrator 16.0.0, SVG Export Plug-In . SVG Version: 6.00 Build 0)  -->
<!DOCTYPE svg PUBLIC "-//W3C//DTD SVG 1.1//EN" "http://www.w3.org/Graphics/SVG/1.1/DTD/svg11.dtd">
<svg version="1.1" id="Layer_1" xmlns="http://www.w3.org/2000/svg" xmlns:xlink="http://www.w3.org/1999/xlink" x="0px" y="0px"
	 width="258.103px" height="159.107px" viewBox="0 0 258.103 159.107" enable-background="new 0 0 258.103 159.107"
	 xml:space="preserve">
<g id="Odl99x_1_">
	<g>
		<g>
			<path d="M0.041,155.565C0.041,104.448,0.051,53.331,0,2.214C-0.001,0.507,0.232-0.006,2.129,0
				c28.639,0.082,57.277,0.057,85.916,0.057c5.543,1.036,11.112,1.825,16.489,3.738c26.021,9.26,29.62,38.436,16.117,56.2
				c-3.145,4.137-6.872,7.704-11.403,10.338c-1.474,0.857-1.358,1.51,0.143,2.113c0.461,0.186,0.937,0.337,1.396,0.528
				c10.905,4.53,18.903,11.832,22.804,23.295c2.121,6.235,2.018,12.562,1.635,18.958c-0.562,9.397-3.851,17.729-10.383,24.521
				c-11.213,11.658-25.783,15.896-41.207,16.248c-26.722,0.61-53.469,0.167-80.206,0.156C2.275,156.151,1.083,156.269,0.041,155.565
				z M58.999,86.236c0-0.003,0-0.007,0-0.011c-6.661,0-13.322-0.009-19.983,0.004c-3.12,0.006-3.29,0.17-3.292,3.232
				c-0.01,12.156-0.009,24.312-0.001,36.47c0.002,3.347,0.116,3.453,3.58,3.454c12.49,0.006,24.979-0.001,37.469,0.006
				c3.187,0.001,6.277-0.502,9.292-1.555c11.024-3.85,16.967-16.604,12.762-27.437c-3.152-8.122-11.512-14.004-20.342-14.144
				C71.989,86.154,65.494,86.236,58.999,86.236z M57.794,62.96c0-0.004,0-0.009,0-0.013c6.164,0,12.329,0.087,18.491-0.021
				c9.183-0.161,17.811-9.367,17.487-18.518c-0.337-9.534-8.973-18.076-18.598-18.157c-12.16-0.103-24.322,0.016-36.482-0.065
				c-2.327-0.016-3.022,0.867-3.005,3.099c0.08,10.245,0.089,20.491-0.007,30.735c-0.022,2.375,0.927,3.006,3.124,2.974
				C45.133,62.899,51.464,62.96,57.794,62.96z"/>
			<path fill-rule="evenodd" clip-rule="evenodd" fill="none" d="M0.041,155.565c1.042,0.704,2.234,0.586,3.39,0.587
				c26.737,0.011,53.483,0.454,80.206-0.156c15.424-0.353,29.994-4.59,41.207-16.248c6.533-6.792,9.821-15.124,10.383-24.521
				c0.383-6.396,0.486-12.723-1.635-18.958c-3.901-11.463-11.899-18.765-22.804-23.295c-0.459-0.19-0.935-0.342-1.396-0.528
				c-1.501-0.603-1.617-1.256-0.143-2.113c4.531-2.634,8.259-6.201,11.403-10.338c13.503-17.764,9.903-46.94-16.117-56.2
				c-5.376-1.913-10.946-2.703-16.489-3.738c56.003,0,112.006,0.01,168.009-0.047c1.712-0.002,2.052,0.335,2.048,2.047
				c-0.065,31.835-0.048,63.67-0.048,95.505c-0.107-0.737-0.27-1.472-0.313-2.213c-0.887-14.952-6.485-28.008-17.349-38.168
				c-17.94-16.779-39.111-21.26-62.183-12.878c-23.157,8.413-36.128,29.2-37.214,52.633c-0.462,9.961,1.096,19.752,4.977,29.042
				c5.971,14.29,16.183,24.109,30.806,29.419c5.779,2.099,11.783,2.769,17.772,3.668c-63.673,0-127.346,0-191.019,0
				C0.041,159.065,0.041,159.065,0.041,155.565z M198.547,9.931c-10.411,0-20.822-0.006-31.233,0.003
				c-3.551,0.003-3.73,0.171-3.757,3.603c-0.021,2.832-0.009,5.664,0.036,8.496c0.051,3.138,0.316,3.455,3.446,3.478
				c7.328,0.053,14.658,0.036,21.987,0.034c13.659-0.002,27.319-0.045,40.979,0.011c2.339,0.01,3.331-0.779,3.208-3.197
				c-0.148-2.908-0.026-5.829-0.042-8.744c-0.02-3.525-0.135-3.669-3.64-3.676C219.204,9.918,208.875,9.931,198.547,9.931z"/>
			<path fill-rule="evenodd" clip-rule="evenodd" d="M194.551,159.065c-5.989-0.899-11.993-1.569-17.772-3.668
				c-14.623-5.31-24.835-15.129-30.806-29.419c-3.881-9.29-5.438-19.081-4.977-29.042c1.086-23.434,14.057-44.221,37.214-52.633
				c23.071-8.382,44.242-3.901,62.183,12.878c10.863,10.16,16.462,23.216,17.349,38.168c0.044,0.741,0.206,1.476,0.313,2.213
				c0,1.166,0,2.333,0,3.5c-0.104,0.571-0.321,1.148-0.291,1.712c0.255,4.717-1.166,3.952-4.099,3.958
				c-10.25,0.023-20.5,0.008-30.751,0.008c-15.584,0.001-31.167,0.027-46.751-0.025c-2.087-0.007-3.213,0.582-2.937,2.842
				c0.992,8.111,3.767,15.35,10.317,20.664c6.442,5.226,14.078,6.313,21.952,5.564c8.646-0.822,15.845-4.512,20.072-12.542
				c0.919-1.747,1.972-2.396,3.873-2.376c7.25,0.072,14.5,0.021,21.75,0.028c4.248,0.005,4.334,0.045,2.969,4.138
				c-5.453,16.35-16.538,26.72-33.156,31.331c-5.247,1.455-10.616,1.916-15.952,2.701
				C201.552,159.065,198.051,159.065,194.551,159.065z M198.793,87.888c8.161,0,16.323-0.022,24.485,0.017
				c2.122,0.01,2.795-0.685,2.253-2.889c-1.071-4.355-2.87-8.307-5.541-11.904c-6.728-9.059-18.688-12.821-29.171-9.075
				c-9.957,3.559-15.681,10.812-18.088,20.916c-0.611,2.565-0.353,2.922,2.324,2.929C182.968,87.901,190.88,87.888,198.793,87.888z"
				/>
			<path fill-rule="evenodd" clip-rule="evenodd" fill="none" d="M205.052,159.065c5.336-0.785,10.705-1.246,15.952-2.701
				c16.618-4.611,27.703-14.981,33.156-31.331c1.365-4.093,1.279-4.133-2.969-4.138c-7.25-0.008-14.5,0.044-21.75-0.028
				c-1.901-0.02-2.954,0.629-3.873,2.376c-4.228,8.03-11.426,11.72-20.072,12.542c-7.874,0.749-15.51-0.339-21.952-5.564
				c-6.551-5.314-9.325-12.553-10.317-20.664c-0.276-2.26,0.85-2.849,2.937-2.842c15.584,0.053,31.167,0.026,46.751,0.025
				c10.251,0,20.501,0.016,30.751-0.008c2.933-0.006,4.354,0.759,4.099-3.958c-0.03-0.563,0.188-1.141,0.291-1.712
				c0,18.751-0.022,37.502,0.042,56.253c0.005,1.491-0.301,1.798-1.792,1.792C239.221,159.041,222.136,159.065,205.052,159.065z"/>
			<path fill-rule="evenodd" clip-rule="evenodd" fill="none" d="M58.999,86.236c6.495,0,12.99-0.082,19.483,0.021
				c8.83,0.14,17.189,6.021,20.342,14.144c4.205,10.833-1.738,23.587-12.762,27.437c-3.015,1.053-6.105,1.556-9.292,1.555
				c-12.49-0.007-24.979,0-37.469-0.006c-3.463-0.001-3.578-0.107-3.58-3.454c-0.007-12.157-0.009-24.313,0.001-36.47
				c0.002-3.062,0.173-3.227,3.292-3.232c6.661-0.013,13.322-0.004,19.983-0.004C58.999,86.229,58.999,86.233,58.999,86.236z"/>
			<path fill-rule="evenodd" clip-rule="evenodd" fill="none" d="M57.794,62.96c-6.331,0-12.662-0.062-18.991,0.033
				c-2.196,0.033-3.146-0.599-3.124-2.974c0.097-10.244,0.087-20.49,0.007-30.735c-0.017-2.232,0.678-3.115,3.005-3.099
				c12.16,0.081,24.322-0.038,36.482,0.065c9.625,0.082,18.261,8.623,18.598,18.157c0.324,9.151-8.304,18.357-17.487,18.518
				c-6.162,0.108-12.327,0.021-18.491,0.021C57.794,62.952,57.794,62.956,57.794,62.96z"/>
			<path fill-rule="evenodd" clip-rule="evenodd" d="M198.547,9.931c10.328,0,20.657-0.012,30.984,0.007
				c3.505,0.006,3.62,0.151,3.64,3.676c0.016,2.915-0.106,5.836,0.042,8.744c0.123,2.418-0.869,3.207-3.208,3.197
				c-13.659-0.056-27.319-0.013-40.979-0.011c-7.329,0.001-14.659,0.019-21.987-0.034c-3.13-0.022-3.396-0.34-3.446-3.478
				c-0.045-2.832-0.058-5.664-0.036-8.496c0.026-3.431,0.206-3.6,3.757-3.603C177.725,9.924,188.136,9.931,198.547,9.931z"/>
			<path fill-rule="evenodd" clip-rule="evenodd" fill="none" d="M198.793,87.888c-7.913,0-15.825,0.013-23.737-0.007
				c-2.677-0.007-2.936-0.363-2.324-2.929c2.407-10.103,8.131-17.357,18.088-20.916c10.482-3.746,22.443,0.016,29.171,9.075
				c2.671,3.597,4.47,7.549,5.541,11.904c0.542,2.204-0.131,2.898-2.253,2.889C215.116,87.866,206.954,87.888,198.793,87.888z"/>
		</g>
	</g>
</g>
</svg>
