<?xml version="1.0" encoding="utf-8"?>
<!-- Generator: Adobe Illustrator 16.0.0, SVG Export Plug-In . SVG Version: 6.00 Build 0)  -->
<!DOCTYPE svg PUBLIC "-//W3C//DTD SVG 1.1//EN" "http://www.w3.org/Graphics/SVG/1.1/DTD/svg11.dtd">
<svg version="1.1" id="Layer_1" xmlns="http://www.w3.org/2000/svg" xmlns:xlink="http://www.w3.org/1999/xlink" x="0px" y="0px"
	 width="210.825px" height="210.825px" viewBox="0 0 210.825 210.825" enable-background="new 0 0 210.825 210.825"
	 xml:space="preserve">
<g id="zapnzz_1_">
	<g>
		<g>
			<path d="M0.275,189.034c0-55.663,0-111.326,0-166.989c0.06-0.313,0.127-0.625,0.178-0.94c0.941-5.863,3.57-10.809,8.015-14.771
				c3.882-3.461,8.475-5.331,13.577-6.059c55.663,0,111.326,0,166.988,0c0.269,0.057,0.534,0.128,0.805,0.167
				c5.947,0.861,10.906,3.555,14.917,8.022c3.413,3.802,5.278,8.303,6.048,13.304c0,55.847,0,111.693,0,167.54
				c-0.063,0.313-0.135,0.625-0.188,0.939c-1.044,6.12-3.919,11.187-8.711,15.148c-3.669,3.031-7.929,4.692-12.594,5.406
				c-55.848,0-111.694,0-167.541,0c-0.267-0.06-0.532-0.131-0.801-0.175c-5.873-0.955-10.783-3.648-14.725-8.115
				C2.83,198.647,0.985,194.093,0.275,189.034z M105.548,186.438c0,0.002,0,0.003,0,0.006c12.03,0,24.06,0,36.091,0
				c12.03-0.001,24.06,0.008,36.09-0.005c5.292-0.006,8.712-3.439,8.718-8.718c0.007-6.888,0-13.774,0-20.662
				c-0.001-21.902-0.001-43.804-0.004-65.706c0-1.904-0.053-1.959-1.91-1.96c-4.867-0.004-9.734,0.015-14.602-0.013
				c-1.138-0.007-1.582,0.273-1.271,1.534c0.938,3.792,1.519,7.655,1.691,11.553c0.477,10.738-1.517,21.016-6.126,30.737
				c-12.239,25.812-39.35,40.553-67.779,36.546c-17.689-2.494-32.127-11.024-42.78-25.369c-11.853-15.96-15.54-33.843-11.275-53.311
				c0.335-1.529,0.228-1.669-1.344-1.671c-4.729-0.005-9.458-0.002-14.188,0c-2.211,0-2.214,0.002-2.214,2.211
				c-0.002,28.514-0.005,57.028-0.005,85.542c0,6.015,3.265,9.283,9.279,9.283C57.795,186.439,81.672,186.438,105.548,186.438z
				 M145.941,105.527c0.007-22.24-18.138-40.448-40.443-40.363c-22.335,0.085-40.135,17.84-40.324,40.057
				c-0.19,22.333,17.968,40.704,39.947,40.719C127.778,145.958,145.934,127.983,145.941,105.527z M166.224,64.938
				c0,0.001,0,0.003,0,0.004c1.974,0,3.947,0,5.921,0c2.021-0.001,4.04,0.006,6.06-0.004c4.699-0.025,8.197-3.433,8.225-8.15
				c0.046-7.941,0.044-15.882,0-23.823c-0.026-4.733-3.427-8.248-8.146-8.297c-7.985-0.082-15.975-0.075-23.96-0.003
				c-4.812,0.043-8.172,3.562-8.176,8.354c-0.008,7.987-0.015,15.974,0.005,23.961c0.01,4.464,3.48,7.928,7.953,7.954
				C158.145,64.956,162.184,64.938,166.224,64.938z"/>
			<path fill-rule="evenodd" clip-rule="evenodd" fill="none" d="M22.045,0.275C16.942,1.003,12.35,2.873,8.468,6.334
				c-4.444,3.962-7.074,8.908-8.015,14.771c-0.051,0.314-0.118,0.626-0.178,0.94c0-6.959,0.016-13.918-0.021-20.876
				C0.25,0.406,0.406,0.25,1.168,0.254C8.127,0.291,15.086,0.275,22.045,0.275z"/>
			<path fill-rule="evenodd" clip-rule="evenodd" fill="none" d="M0.275,189.034c0.709,5.06,2.555,9.613,5.967,13.479
				c3.942,4.467,8.852,7.16,14.725,8.115c0.27,0.044,0.535,0.115,0.801,0.175c-6.867,0-13.734-0.016-20.601,0.021
				c-0.763,0.004-0.918-0.153-0.914-0.915C0.291,202.951,0.275,195.993,0.275,189.034z"/>
			<path fill-rule="evenodd" clip-rule="evenodd" fill="none" d="M210.803,21.769c-0.77-5.001-2.635-9.502-6.048-13.304
				c-4.011-4.468-8.97-7.161-14.917-8.022c-0.271-0.039-0.536-0.11-0.805-0.167c6.959,0,13.918,0.016,20.876-0.021
				c0.762-0.004,0.92,0.151,0.916,0.914C210.787,8.035,210.803,14.902,210.803,21.769z"/>
			<path fill-rule="evenodd" clip-rule="evenodd" fill="none" d="M189.31,210.803c4.665-0.714,8.925-2.375,12.594-5.406
				c4.792-3.962,7.667-9.028,8.711-15.148c0.054-0.314,0.125-0.626,0.188-0.939c0,6.889-0.012,13.778,0.019,20.667
				c0.003,0.689-0.155,0.848-0.845,0.845C203.087,210.792,196.198,210.803,189.31,210.803z"/>
			<path fill-rule="evenodd" clip-rule="evenodd" fill="none" d="M105.548,186.438c-23.876,0-47.753,0.001-71.629-0.002
				c-6.014,0-9.279-3.269-9.279-9.283c0-28.515,0.003-57.028,0.005-85.542c0-2.208,0.003-2.21,2.214-2.211
				c4.729-0.001,9.458-0.005,14.188,0c1.571,0.002,1.679,0.142,1.344,1.671c-4.265,19.467-0.577,37.351,11.275,53.311
				c10.653,14.345,25.091,22.875,42.78,25.369c28.43,4.007,55.54-10.733,67.779-36.546c4.609-9.721,6.603-19.999,6.126-30.737
				c-0.173-3.898-0.753-7.762-1.691-11.553c-0.312-1.261,0.133-1.541,1.271-1.534c4.867,0.028,9.734,0.008,14.602,0.013
				c1.857,0.001,1.91,0.057,1.91,1.96c0.003,21.901,0.003,43.803,0.004,65.706c0,6.888,0.007,13.774,0,20.662
				c-0.006,5.278-3.426,8.712-8.718,8.718c-12.03,0.013-24.06,0.004-36.09,0.005c-12.031,0-24.061,0-36.091,0
				C105.548,186.441,105.548,186.44,105.548,186.438z"/>
			<path fill-rule="evenodd" clip-rule="evenodd" fill="none" d="M145.941,105.527c-0.008,22.456-18.163,40.43-40.82,40.414
				c-21.979-0.016-40.137-18.386-39.947-40.719c0.189-22.217,17.989-39.972,40.324-40.057
				C127.804,65.08,145.948,83.288,145.941,105.527z"/>
			<path fill-rule="evenodd" clip-rule="evenodd" fill="none" d="M166.224,64.938c-4.04,0-8.079,0.019-12.118-0.005
				c-4.473-0.026-7.943-3.49-7.953-7.954c-0.02-7.987-0.013-15.974-0.005-23.961c0.004-4.792,3.364-8.312,8.176-8.354
				c7.985-0.072,15.975-0.079,23.96,0.003c4.719,0.049,8.119,3.564,8.146,8.297c0.044,7.941,0.046,15.882,0,23.823
				c-0.027,4.717-3.525,8.125-8.225,8.15c-2.02,0.01-4.039,0.003-6.06,0.004c-1.974,0-3.947,0-5.921,0
				C166.224,64.94,166.224,64.939,166.224,64.938z"/>
		</g>
	</g>
</g>
</svg>
