<?xml version="1.0" encoding="utf-8"?>
<!-- Generator: Adobe Illustrator 16.0.0, SVG Export Plug-In . SVG Version: 6.00 Build 0)  -->
<!DOCTYPE svg PUBLIC "-//W3C//DTD SVG 1.1//EN" "http://www.w3.org/Graphics/SVG/1.1/DTD/svg11.dtd">
<svg version="1.1" id="Layer_1" xmlns="http://www.w3.org/2000/svg" xmlns:xlink="http://www.w3.org/1999/xlink" x="0px" y="0px"
	 width="383.147px" height="365.519px" viewBox="0 0 383.147 365.519" enable-background="new 0 0 383.147 365.519"
	 xml:space="preserve">
<g id="ds1egM_1_">
	<g>
		<g>
			<path fill="none" d="M5.5,365.519c-1.667,0-3.333,0-5,0c0-106.005,0-212.011,0-318.016c0.11,0.485,0.252,0.964,0.324,1.455
				c2.09,14.255,9.37,24.907,22.168,31.609c9.97,5.222,20.673,6.026,31.621,4.646c25.146-3.171,40.179-23.326,38.079-45.49
				c-1.489-15.71-8.944-27.441-23.184-34.629C64.461,2.545,59.015,1.413,53.503,0.5c109.05,0,218.099,0.007,327.149-0.056
				c2.041-0.001,2.424,0.424,2.423,2.437c-0.062,120.129-0.054,240.26-0.086,360.389c0,0.731,0.576,1.695-0.469,2.249
				c0.056-1.329,0.16-2.658,0.16-3.987c0.009-44.335-0.003-88.67,0.017-133.006c0.003-7.831-0.151-15.642-0.947-23.45
				c-1.479-14.524-4.65-28.599-10.872-41.854c-10.989-23.408-28.729-39.078-53.742-46.178c-12.888-3.658-26.039-4.477-39.354-3.263
				c-10.905,0.995-21.281,3.783-31.003,8.882c-12.637,6.628-22.329,16.427-30.277,28.108c-0.463,0.679-0.788,1.53-1.826,2.05
				c0-10.448-0.066-20.612,0.048-30.773c0.027-2.435-0.81-3.177-3.167-3.142c-7.165,0.108-14.333,0.035-21.5,0.036
				c-18.167,0.001-36.335,0.021-54.502-0.019c-2.068-0.004-3.375,0.327-3.13,2.873c0.278,2.897,0.372,5.822,0.372,8.734
				c0.005,66.833,0.326,133.665-0.268,200.496c-0.102,11.498-0.019,22.996-0.021,34.494c-15.001,0-30.001,0-45.002,0
				c0.034-0.915,0.096-1.83,0.096-2.745c0.001-79.997-0.002-159.994-0.006-239.991c0-3.834-0.007-3.847-3.898-3.848
				c-24.916,0-49.831,0.005-74.747,0.009c-0.5,0-1,0.023-1.5,0.013c-1.422-0.028-2.2,0.565-2.115,2.084
				c0.042,0.748-0.002,1.5-0.002,2.25c-0.001,79.581-0.002,159.161,0.005,238.742C5.338,363.194,5.444,364.356,5.5,365.519z"/>
			<path fill-rule="evenodd" clip-rule="evenodd" d="M132.507,365.519c0.002-11.498-0.081-22.996,0.021-34.494
				c0.593-66.831,0.272-133.663,0.268-200.496c0-2.913-0.094-5.837-0.372-8.734c-0.244-2.545,1.062-2.877,3.13-2.873
				c18.167,0.039,36.334,0.02,54.502,0.019c7.167-0.001,14.335,0.072,21.5-0.036c2.357-0.035,3.194,0.708,3.167,3.142
				c-0.114,10.162-0.048,20.326-0.048,30.773c1.038-0.52,1.363-1.371,1.826-2.05c7.948-11.681,17.641-21.48,30.277-28.108
				c9.722-5.099,20.098-7.887,31.003-8.882c13.314-1.214,26.466-0.396,39.354,3.263c25.014,7.1,42.753,22.77,53.742,46.178
				c6.222,13.255,9.393,27.33,10.872,41.854c0.796,7.809,0.95,15.619,0.947,23.45c-0.02,44.336-0.008,88.671-0.017,133.006
				c0,1.329-0.104,2.658-0.16,3.987c-27.335,0-54.67,0-82.005,0c-0.035-0.914-0.102-1.829-0.102-2.744
				c-0.004-42.817-0.021-85.634,0.02-128.451c0.007-6.761-0.335-13.478-1.594-20.125c-1.614-8.527-4.31-16.645-10.04-23.366
				c-10.047-11.782-23.277-14.255-37.667-11.834c-15.873,2.671-26.099,12.75-32.833,26.853c-2.946,6.171-3.58,12.808-3.589,19.484
				c-0.058,45.483-0.029,90.966-0.038,136.448c0,1.245-0.105,2.49-0.161,3.735C187.176,365.519,159.841,365.519,132.507,365.519z"/>
			<path fill-rule="evenodd" clip-rule="evenodd" d="M5.5,365.519c-0.057-1.162-0.163-2.324-0.163-3.486
				c-0.007-79.581-0.006-159.161-0.005-238.742c0-0.75,0.044-1.502,0.002-2.25c-0.084-1.519,0.693-2.112,2.115-2.084
				c0.5,0.01,1-0.013,1.5-0.013c24.916-0.004,49.832-0.01,74.747-0.009c3.891,0,3.898,0.014,3.898,3.848
				c0.004,79.997,0.008,159.994,0.006,239.991c0,0.915-0.062,1.83-0.096,2.745C60.17,365.519,32.835,365.519,5.5,365.519z"/>
			<path fill-rule="evenodd" clip-rule="evenodd" fill="none" d="M214.511,365.519c0.056-1.245,0.161-2.49,0.161-3.735
				c0.009-45.482-0.02-90.965,0.038-136.448c0.009-6.677,0.643-13.313,3.589-19.484c6.734-14.103,16.96-24.181,32.833-26.853
				c14.39-2.421,27.62,0.052,37.667,11.834c5.73,6.722,8.426,14.839,10.04,23.366c1.259,6.647,1.601,13.364,1.594,20.125
				c-0.041,42.817-0.023,85.634-0.02,128.451c0,0.915,0.066,1.83,0.102,2.744C271.847,365.519,243.179,365.519,214.511,365.519z"/>
			<path fill-rule="evenodd" clip-rule="evenodd" d="M53.503,0.5c5.512,0.913,10.958,2.045,16.005,4.593
				c14.239,7.188,21.695,18.919,23.184,34.629c2.1,22.165-12.932,42.319-38.079,45.49c-10.948,1.381-21.651,0.577-31.621-4.646
				C10.194,73.864,2.914,63.212,0.824,48.957c-0.072-0.49-0.214-0.97-0.324-1.455c0-3,0-6,0-9c0.11-0.484,0.256-0.964,0.325-1.454
				C2.676,23.847,9.329,13.811,20.722,6.919c5.938-3.591,12.526-5.264,19.28-6.419C44.502,0.5,49.002,0.5,53.503,0.5z"/>
			<path fill-rule="evenodd" clip-rule="evenodd" fill="none" d="M40.002,0.5c-6.754,1.155-13.343,2.828-19.28,6.419
				C9.329,13.811,2.676,23.847,0.825,37.048c-0.069,0.49-0.215,0.97-0.325,1.454c0-12.128,0.029-24.257-0.04-36.384
				C0.452,0.729,0.745,0.454,2.123,0.461C14.749,0.528,27.375,0.5,40.002,0.5z"/>
		</g>
	</g>
</g>
</svg>
