<?xml version="1.0" encoding="utf-8"?>
<!-- Generator: Adobe Illustrator 16.0.0, SVG Export Plug-In . SVG Version: 6.00 Build 0)  -->
<!DOCTYPE svg PUBLIC "-//W3C//DTD SVG 1.1//EN" "http://www.w3.org/Graphics/SVG/1.1/DTD/svg11.dtd">
<svg version="1.1" id="Layer_1" xmlns="http://www.w3.org/2000/svg" xmlns:xlink="http://www.w3.org/1999/xlink" x="0px" y="0px"
	 width="136.675px" height="230.188px" viewBox="0 0 136.675 230.188" enable-background="new 0 0 136.675 230.188"
	 xml:space="preserve">
<g id="oeadCe_1_">
	<g>
		<g>
			<path fill="none" d="M101.082,230.124c-32.546,0-65.091-0.03-97.637,0.059c-2.562,0.007-3.449-0.232-3.445-3.248
				C0.12,152.346,0.11,77.755,0.027,3.166C0.024,0.64,0.443,0.015,3.1,0.021C46.546,0.13,89.992,0.144,133.437,0
				c3.053-0.01,3.237,0.935,3.232,3.462c-0.08,37.84-0.056,75.679-0.056,113.52c-2.519-4.498-6.794-3.3-10.409-2.67
				c-3.751,0.654-2.878,4.276-2.883,6.958c-0.042,23.326-0.021,46.652-0.029,69.979c-0.002,3.263-0.047,6.508-0.666,9.751
				c-1.476,7.718-5.213,13.657-12.868,16.382c-8.007,2.849-14.243-0.649-19.648-6.175c-2.713-2.773-5.072-4.54-8.463-0.808
				c-4.064,4.476-4.225,6.083-0.339,10.174C86.707,226.256,93.602,228.779,101.082,230.124z M8.73,113.516
				c4.333,1.042,6.639-1.453,8.547-5.783C25.38,89.35,33.843,71.127,42.111,52.817c6.858-15.188,13.633-30.414,20.429-45.63
				c0.888-1.988,2.097-4.098-0.519-5.751c-4.053-2.56-11.376-0.353-13.357,4.011C37.396,30.265,26.134,55.084,14.88,79.908
				c-4.116,9.079-8.218,18.164-12.306,27.254c-2.332,5.186-1.652,6.205,4.154,6.353C7.195,113.526,7.663,113.516,8.73,113.516z
				 M78.865,107.345c0.108-3.722-3.178-7.233-6.94-7.414c-3.72-0.179-7.273,3.039-7.526,6.816c-0.261,3.894,3.219,7.613,7.162,7.657
				C75.293,114.445,78.755,111.1,78.865,107.345z"/>
			<path fill-rule="evenodd" clip-rule="evenodd" d="M101.082,230.124c-7.479-1.345-14.375-3.868-19.773-9.551
				c-3.886-4.091-3.726-5.698,0.339-10.174c3.391-3.732,5.75-1.966,8.463,0.808c5.405,5.525,11.642,9.023,19.648,6.175
				c7.655-2.725,11.393-8.664,12.868-16.382c0.619-3.243,0.664-6.488,0.666-9.751c0.009-23.327-0.013-46.653,0.029-69.979
				c0.005-2.683-0.868-6.305,2.883-6.958c3.615-0.63,7.891-1.828,10.409,2.67c0,26.805,0,53.61,0,80.415
				c-0.24,1.371-0.491,2.741-0.72,4.114c-1.936,11.592-7.239,20.753-18.417,25.756c-3.454,1.546-7.221,1.796-10.785,2.857
				C104.822,230.124,102.952,230.124,101.082,230.124z"/>
			<path fill-rule="evenodd" clip-rule="evenodd" fill="none" d="M106.692,230.124c3.564-1.062,7.331-1.312,10.785-2.857
				c11.178-5.003,16.481-14.164,18.417-25.756c0.229-1.373,0.479-2.743,0.72-4.114c0,10.13-0.071,20.261,0.061,30.389
				c0.026,2.013-0.387,2.431-2.399,2.4C125.083,230.046,115.886,230.124,106.692,230.124z"/>
			<path fill-rule="evenodd" clip-rule="evenodd" d="M8.73,113.516c-1.067,0-1.535,0.011-2.002-0.001
				c-5.807-0.148-6.486-1.167-4.154-6.353c4.088-9.091,8.19-18.176,12.306-27.254c11.254-24.823,22.516-49.643,33.783-74.46
				c1.981-4.363,9.304-6.571,13.357-4.011c2.616,1.653,1.407,3.763,0.519,5.751c-6.796,15.216-13.571,30.441-20.429,45.63
				c-8.268,18.31-16.73,36.533-24.833,54.915C15.369,112.062,13.064,114.558,8.73,113.516z"/>
			<path fill-rule="evenodd" clip-rule="evenodd" d="M78.865,107.345c-0.109,3.754-3.571,7.1-7.305,7.059
				c-3.943-0.043-7.423-3.763-7.162-7.657c0.253-3.777,3.807-6.995,7.526-6.816C75.687,100.112,78.973,103.623,78.865,107.345z"/>
		</g>
	</g>
</g>
</svg>
