<?xml version="1.0" encoding="utf-8"?>
<!-- Generator: Adobe Illustrator 16.0.0, SVG Export Plug-In . SVG Version: 6.00 Build 0)  -->
<!DOCTYPE svg PUBLIC "-//W3C//DTD SVG 1.1//EN" "http://www.w3.org/Graphics/SVG/1.1/DTD/svg11.dtd">
<svg version="1.1" id="Layer_1" xmlns="http://www.w3.org/2000/svg" xmlns:xlink="http://www.w3.org/1999/xlink" x="0px" y="0px"
	 width="296.108px" height="382.135px" viewBox="0 0 296.108 382.135" enable-background="new 0 0 296.108 382.135"
	 xml:space="preserve">
<g id="_x31_8Eg7p_1_">
	<g>
		<g>
			<path d="M68.049,382.067c-1,0-2,0-3,0c-1.101-1.004-1.538-2.264-1.755-3.737c-1.668-11.296-2.638-22.644-3.063-34.058
				c-0.511-13.697-0.045-27.339,2.482-40.809c3.01-16.04,7.27-31.811,10.982-47.699c5.966-25.537,12.056-51.046,18.087-76.568
				c0.306-1.293,0.529-2.539-0.041-3.895c-3.417-8.13-5.219-16.635-6.007-25.412c-1.13-12.582,0.194-24.801,5.148-36.473
				c5.063-11.927,12.766-21.477,25.242-26.286c12.42-4.788,26.294-1.757,34.065,7.622c6.675,8.058,8.119,17.711,7.3,27.792
				c-0.69,8.496-2.773,16.737-5.076,24.924c-4.508,16.031-10.08,31.753-13.957,47.966c-4.755,19.887,6.31,37.75,26.218,41.72
				c13.786,2.748,26.279-0.924,37.421-9.236c12.532-9.353,20.53-22.128,26.678-36.203c6.555-15.011,10.251-30.794,12.006-47.017
				c1.381-12.766,2.175-25.601,0.082-38.366c-4.772-29.114-20.491-49.941-47.979-61.016c-22.885-9.221-46.606-9.746-70.458-4.199
				c-21.228,4.937-39.289,15.521-53.594,32.034c-18.493,21.347-26.589,46.44-25.507,74.49c0.487,12.645,4.103,24.435,11.821,34.716
				c1.25,1.665,2.555,3.291,3.882,4.895c2.353,2.844,3.042,5.993,2.089,9.584c-1.6,6.036-3.031,12.117-4.664,18.144
				c-1.715,6.33-5.943,8.348-12,5.879c-7.349-2.997-13.826-7.34-19.468-12.89c-11.479-11.291-17.877-25.301-21.644-40.715
				c-1.825-7.467-2.544-15.083-3.294-22.7c0-4.5,0-9,0-13.5c0.1-0.655,0.25-1.307,0.291-1.965
				c0.696-11.213,2.865-22.167,6.866-32.631c20.841-54.512,61.79-83.93,118.034-94.075c6.881-1.241,13.859-1.722,20.817-2.336
				c7.001,0,14.001,0,21.001,0c2.229,0.25,4.454,0.538,6.687,0.746c20.251,1.89,39.382,7.541,57.091,17.562
				c29.61,16.757,50.035,41.138,60.309,73.75c2.764,8.771,4.069,17.821,4.921,26.948c0,5.333,0,10.667,0,16
				c-0.099,0.739-0.257,1.475-0.289,2.217c-0.709,16.297-3.308,32.284-8.115,47.874c-8.202,26.596-21.441,50.102-43.452,67.742
				c-22.993,18.427-49.314,26.572-78.656,22.203c-16.663-2.481-30.949-10.104-40.854-24.461c-0.117-0.169-0.393-0.229-0.744-0.423
				c-0.257,0.777-0.527,1.458-0.707,2.162c-4.032,15.81-8.286,31.566-12.027,47.445C103.875,330.97,87.614,357.367,68.049,382.067z"
				/>
			<path fill-rule="evenodd" clip-rule="evenodd" fill="none" d="M0.045,144.555c0.75,7.617,1.469,15.233,3.294,22.7
				c3.767,15.414,10.164,29.424,21.644,40.715c5.642,5.55,12.119,9.893,19.468,12.89c6.057,2.469,10.285,0.451,12-5.879
				c1.633-6.026,3.064-12.107,4.664-18.144c0.952-3.591,0.264-6.74-2.089-9.584c-1.327-1.604-2.632-3.229-3.882-4.895
				c-7.718-10.282-11.334-22.071-11.821-34.716c-1.082-28.049,7.015-53.143,25.507-74.49c14.305-16.513,32.367-27.098,53.594-32.034
				c23.852-5.547,47.574-5.022,70.458,4.199c27.487,11.075,43.206,31.902,47.979,61.016c2.093,12.765,1.299,25.6-0.082,38.366
				c-1.755,16.223-5.451,32.006-12.006,47.017c-6.147,14.075-14.146,26.851-26.678,36.203c-11.142,8.312-23.635,11.984-37.421,9.236
				c-19.909-3.97-30.973-21.833-26.218-41.72c3.876-16.213,9.449-31.936,13.957-47.966c2.303-8.187,4.386-16.429,5.076-24.924
				c0.819-10.081-0.625-19.734-7.3-27.792c-7.771-9.379-21.645-12.409-34.065-7.622c-12.477,4.809-20.179,14.358-25.242,26.286
				c-4.954,11.672-6.278,23.892-5.148,36.473c0.788,8.776,2.589,17.282,6.007,25.412c0.569,1.355,0.346,2.601,0.041,3.895
				c-6.031,25.522-12.121,51.031-18.087,76.568c-3.712,15.889-7.972,31.659-10.982,47.699c-2.527,13.47-2.993,27.111-2.482,40.809
				c0.425,11.414,1.395,22.762,3.063,34.058c0.218,1.474,0.654,2.733,1.755,3.737c-20.9,0-41.801-0.045-62.701,0.067
				c-2.181,0.012-2.349-0.634-2.348-2.512C0.053,301.267,0.045,222.911,0.045,144.555z"/>
			<path fill-rule="evenodd" clip-rule="evenodd" fill="none" d="M68.049,382.067c19.565-24.7,35.826-51.098,43.167-82.253
				c3.741-15.879,7.996-31.636,12.027-47.445c0.18-0.704,0.45-1.385,0.707-2.162c0.352,0.193,0.627,0.254,0.744,0.423
				c9.904,14.356,24.19,21.979,40.854,24.461c29.342,4.369,55.663-3.776,78.656-22.203c22.011-17.641,35.25-41.146,43.452-67.742
				c4.808-15.59,7.406-31.577,8.115-47.874c0.032-0.742,0.19-1.478,0.289-2.217c0,81.588-0.007,163.175,0.047,244.763
				c0.002,1.875-0.422,2.299-2.297,2.297C218.557,382.06,143.303,382.067,68.049,382.067z"/>
			<path fill-rule="evenodd" clip-rule="evenodd" fill="none" d="M146.053,0.048c-6.958,0.614-13.936,1.095-20.817,2.336
				C68.991,12.529,28.043,41.947,7.202,96.459c-4,10.464-6.169,21.418-6.866,32.631c-0.041,0.658-0.191,1.31-0.291,1.965
				c0-43.669,0-87.338,0-131.007C48.715,0.048,97.384,0.048,146.053,0.048z"/>
			<path fill-rule="evenodd" clip-rule="evenodd" fill="none" d="M296.061,119.054c-0.852-9.126-2.157-18.177-4.921-26.948
				c-10.273-32.613-30.698-56.993-60.309-73.75C213.122,8.334,193.991,2.683,173.74,0.793c-2.232-0.208-4.458-0.495-6.687-0.746
				c42.336,0,84.671,0.013,127.007-0.048c1.712-0.002,2.051,0.336,2.048,2.048C296.047,41.05,296.061,80.052,296.061,119.054z"/>
		</g>
	</g>
</g>
</svg>
